<svg xmlns="http://www.w3.org/2000/svg" viewBox="0 0 219.09 187.62"><defs><style>.cls-1{fill:#b5191e;}</style></defs><title>Asset 1</title><g id="Layer_2" data-name="Layer 2"><g id="Layer_1-2" data-name="Layer 1"><path class="cls-1" d="M165.2,131.64q.08,10.67.08,11.35h2a65.62,65.62,0,0,0,13.8-1.41,44.62,44.62,0,0,0,11.82-4.21,28.93,28.93,0,0,0,10-8.81,22.39,22.39,0,0,0,4-13.43,27.55,27.55,0,0,0-4.18-15.22,27.09,27.09,0,0,0-11.78-10,50.39,50.39,0,0,0-11.52-3.49,76,76,0,0,0-14.32-1.29v14q0,21.78.07,32.45m-11.67-1.37q.12-12.95.12-29,0-20.28-.15-40C153.4,48.1,153.34,1,153.34,0l12,11.73L165.13,75a90.14,90.14,0,0,1,16.41,1.55,60.71,60.71,0,0,1,14.82,4.6,38.74,38.74,0,0,1,16.88,13.93,36.48,36.48,0,0,1,5.85,20.46,32.07,32.07,0,0,1-5.25,17.92q-5.24,8.06-15.35,12.91a56.61,56.61,0,0,1-15.88,5,157.09,157.09,0,0,1-22.5,1.25c-1,0-2.26,0-3.88,0l-2.89,0q.09-9.34.19-22.29"/><path class="cls-1" d="M88.36,95.78c.06-7.11.08-10.9.08-11.35h2a66.27,66.27,0,0,1,13.79,1.4A44.63,44.63,0,0,1,116,90.05a28.71,28.71,0,0,1,10,8.8,22.4,22.4,0,0,1,4,13.44,27.43,27.43,0,0,1-4.18,15.21,27.06,27.06,0,0,1-11.78,10A50.8,50.8,0,0,1,102.62,141a76.07,76.07,0,0,1-14.33,1.29v-14q0-21.79.07-32.45M76.7,97.14q.1,13,.11,29,0,20.28-.15,40t-.15,21.26h12l-.23-35a89.47,89.47,0,0,0,16.42-1.56,61.43,61.43,0,0,0,14.82-4.59,38.79,38.79,0,0,0,16.87-13.94,36.48,36.48,0,0,0,5.85-20.46A32.18,32.18,0,0,0,137,93.91Q131.76,85.86,121.65,81a56.16,56.16,0,0,0-15.88-5,155.53,155.53,0,0,0-22.5-1.25l-3.87,0-2.89,0q.08,9.34.19,22.29"/><path class="cls-1" d="M53.89,131.64q-.07,10.67-.08,11.35h-2A65.6,65.6,0,0,1,38,141.58a44.62,44.62,0,0,1-11.82-4.21,28.84,28.84,0,0,1-10-8.81,22.39,22.39,0,0,1-4-13.43,27.47,27.47,0,0,1,4.18-15.22,27,27,0,0,1,11.78-10,50.23,50.23,0,0,1,11.52-3.49A76,76,0,0,1,54,85.15v14q0,21.78-.07,32.45m11.66-1.37q-.1-12.95-.11-29,0-20.28.15-40C65.69,48.1,65.74,1,65.74,0l-12,11.68L54,75a90.14,90.14,0,0,0-16.41,1.55,60.71,60.71,0,0,0-14.82,4.6A38.68,38.68,0,0,0,5.85,95.12,36.48,36.48,0,0,0,0,115.58,32.14,32.14,0,0,0,5.24,133.5q5.25,8.06,15.36,12.91a56.61,56.61,0,0,0,15.88,5A157,157,0,0,0,59,152.64c1,0,2.25,0,3.88,0l2.88,0q-.08-9.34-.19-22.29"/><path class="cls-1" d="M217.61,185.57c-.74-.78-1.42-1.52-2-2.25v0a5.37,5.37,0,0,0,1.12-1,2.27,2.27,0,0,0,.59-1.6,2.2,2.2,0,0,0-.39-1.3,2.43,2.43,0,0,0-1.07-.84,3.76,3.76,0,0,0-1.08-.29,8.66,8.66,0,0,0-1.15-.07h-1.13l-.67,0c0,1.61,0,2.73,0,3.34v1.26c0,1.16,0,2.13,0,2.91s0,1.31,0,1.58h1.12c0-.27,0-.94,0-2s0-1.91,0-2.53v-1.39c0-.66,0-1.42,0-2.28h.56l.81,0a2.79,2.79,0,0,1,.82.18,1.51,1.51,0,0,1,1,1.46,2,2,0,0,1-.19.91,2.54,2.54,0,0,1-.44.57,3.12,3.12,0,0,1-.72.49,3.59,3.59,0,0,1-.69.3v.06c1.26,1.44,2.19,2.51,2.8,3.19l1.06,1.18.85-.7-1.19-1.24m-7.54.83H205.4c0-.34,0-.77,0-1.27v-2H210v-.94h-4.6c0-.45,0-.93,0-1.44s0-1,0-1.53H210v-.94h-5.69q0,1.35,0,2.61v2c0,.94,0,1.84,0,2.71s0,1.45,0,1.71h5.78Zm-9.56-2.33c-.79-.72-1.24-1.14-1.34-1.24h0l1.55-1.6c.82-.84,1.62-1.63,2.4-2.38l-.77-.68c-.92,1-1.84,2-2.76,2.93s-1.52,1.57-1.8,1.85v0l1.72,1.56c1,.91,2.05,1.89,3.14,2.95l.78-.75c-1.15-1-2.13-1.93-2.92-2.66m-3,1.82c0-.71,0-1.72,0-3,0-.63,0-1.39,0-2.26s0-1.66,0-2.35h-1.12c0,.72,0,1.43,0,2.12s0,1.31,0,1.84c0,1.3,0,2.42,0,3.34s0,1.52,0,1.79h1.12c0-.27,0-.76,0-1.46m-4.15-1.29a3.6,3.6,0,0,1-.83,1.24,3.16,3.16,0,0,1-1,.64,3,3,0,0,1-2.26,0,2.93,2.93,0,0,1-.92-.6,3.65,3.65,0,0,1-.88-1.31,4.83,4.83,0,0,1-.31-1.75,4.71,4.71,0,0,1,.31-1.67,3.77,3.77,0,0,1,.84-1.35,3.2,3.2,0,0,1,1-.65,3,3,0,0,1,1.14-.22,3,3,0,0,1,1.13.22,3.09,3.09,0,0,1,.91.61,3.55,3.55,0,0,1,.91,1.43,5.47,5.47,0,0,1,.29,1.74,4.2,4.2,0,0,1-.33,1.68m1.14-3.75a4.56,4.56,0,0,0-1-1.6,4.11,4.11,0,0,0-1.36-.91,4.28,4.28,0,0,0-1.69-.33,4.2,4.2,0,0,0-1.72.35,4.07,4.07,0,0,0-1.4,1,4.57,4.57,0,0,0-1,1.55,5.5,5.5,0,0,0-.32,1.91,5.29,5.29,0,0,0,.4,2.11,4.55,4.55,0,0,0,1.07,1.56,3.89,3.89,0,0,0,1.34.86,4.44,4.44,0,0,0,1.59.29,4.31,4.31,0,0,0,1.61-.3,4.48,4.48,0,0,0,1.43-1,4.58,4.58,0,0,0,1-1.52,5.3,5.3,0,0,0,.38-2,5.54,5.54,0,0,0-.35-2m-9.79,4.72c-.74-.78-1.42-1.52-2.05-2.25v0a5.16,5.16,0,0,0,1.13-1,2.27,2.27,0,0,0,.59-1.6,2.2,2.2,0,0,0-.39-1.3,2.49,2.49,0,0,0-1.07-.84,3.76,3.76,0,0,0-1.08-.29,8.77,8.77,0,0,0-1.15-.07h-1.13l-.68,0c0,1.61,0,2.73,0,3.34v1.26c0,1.16,0,2.13,0,2.91s0,1.31,0,1.58H180c0-.27,0-.94,0-2s0-1.91,0-2.53v-1.39c0-.66,0-1.42,0-2.28h.56l.8,0a2.86,2.86,0,0,1,.83.18,1.55,1.55,0,0,1,.76.56,1.51,1.51,0,0,1,.28.9,2,2,0,0,1-.19.91,2.54,2.54,0,0,1-.44.57,3.12,3.12,0,0,1-.72.49,3.88,3.88,0,0,1-.69.3v.06c1.26,1.44,2.19,2.51,2.8,3.19l1.06,1.18.85-.7-1.19-1.24m-8.72-.06a1.57,1.57,0,0,1-.59.55,3.14,3.14,0,0,1-1.13.34,12.74,12.74,0,0,1-1.44.08h-.44l-.36,0s0-.47,0-1.26,0-1.57,0-2.35v-1.61c0-.75,0-1.45,0-2.11H173a5.49,5.49,0,0,1,.93.07,2.62,2.62,0,0,1,.73.22,1.36,1.36,0,0,1,.56.47,1.32,1.32,0,0,1,.2.72,1.41,1.41,0,0,1-.18.71,1.67,1.67,0,0,1-.47.52,2.24,2.24,0,0,1-.68.32,3.91,3.91,0,0,1-.89.12l.11.81h.92a2.5,2.5,0,0,1,.88.14,1.72,1.72,0,0,1,.64.37,1.92,1.92,0,0,1,.36.53,1.38,1.38,0,0,1,.13.62,1.52,1.52,0,0,1-.21.8m1.21-1.7a2,2,0,0,0-.44-.65,2.35,2.35,0,0,0-.77-.51,3.19,3.19,0,0,0-.91-.22v-.07a2.23,2.23,0,0,0,1-.74,1.88,1.88,0,0,0,.45-1.24,1.77,1.77,0,0,0-.36-1.12,2.14,2.14,0,0,0-1-.7,4.42,4.42,0,0,0-1-.26,8.71,8.71,0,0,0-1.29-.09l-1.28,0-.75,0s0,.44,0,1.21,0,1.83,0,3.17c0,.7,0,1.43,0,2.21s0,1.59,0,2.46l.8,0c.47,0,.93,0,1.38,0a7.85,7.85,0,0,0,1.61-.14,5,5,0,0,0,1.3-.44,2.6,2.6,0,0,0,1-.89,2.23,2.23,0,0,0,.35-1.22,2.19,2.19,0,0,0-.15-.87m-10.59,2.59H162c0-.34,0-.77,0-1.27s0-1.18,0-2h4.61v-.94h-4.61c0-.45,0-.93,0-1.44s0-1,0-1.53h4.58v-.94h-5.7q0,1.35,0,2.61c0,.85,0,1.52,0,2,0,.94,0,1.84,0,2.71s0,1.45,0,1.71h5.78Zm-9.1-8.14c0,.79,0,2,0,3.67s0,2.82,0,3.52h0q-1.73-2.13-3.69-4.61l-2.08-2.64-1,.49c0,.91,0,1.78,0,2.59v2c0,1.24,0,2.2,0,2.89s0,1.1,0,1.21h1.06q0-.4,0-3.06c0-1.76,0-3.26,0-4.47h0c.18.24.87,1.09,2.06,2.58s2.47,3.16,3.83,5l.91-.44s0-.45,0-1.21,0-1.78,0-3.07c0-.4,0-1.06,0-2s0-1.73,0-2.44Zm-10.47,5H143.8l.8-1.78c.32-.72.59-1.34.82-1.83h0l.84,1.89.76,1.73Zm1.58.77q-1.31-2.85-2.67-5.89h-.88c-.92,2-1.8,4-2.66,5.8s-1.34,2.88-1.46,3.11l.91.5c0-.07.18-.4.43-1l1.11-2.45h4c.45,1,.8,1.79,1.08,2.41s.41,1,.43,1L150,187l-1.37-3m-7.22,2.37H137s0-.46,0-1.26v-4.86c0-.76,0-1.44,0-2h-1.12c0,.27,0,.74,0,1.42s0,1.65,0,2.94c0,.77,0,1.55,0,2.35s0,1.59,0,2.37h5.57Zm-8.33-3.81a2.19,2.19,0,0,1-1,.75,3.05,3.05,0,0,1-.88.23,8.27,8.27,0,0,1-1,.06H130v-.78c0-.46,0-.86,0-1.19s0-.87,0-1.5,0-1,0-1h.25c.34,0,.66,0,1,.05a2.78,2.78,0,0,1,.88.22,2.11,2.11,0,0,1,1,.78,2.16,2.16,0,0,1,.32,1.19,2,2,0,0,1-.34,1.21m1.17-2.66a2.6,2.6,0,0,0-.94-1,3.87,3.87,0,0,0-1.39-.51,11.41,11.41,0,0,0-2-.15h-1q0,1.31,0,2.37v1.8c0,1.54,0,2.68,0,3.41s0,1.24,0,1.51H130v-2.87c.44,0,.85,0,1.21,0a7,7,0,0,0,1-.18,3.09,3.09,0,0,0,1.71-1.09,2.77,2.77,0,0,0,.64-1.79,3,3,0,0,0-.32-1.45m-11.64,3.33h-3.25c.21-.46.47-1.05.79-1.78s.6-1.34.83-1.83h0l.84,1.89.76,1.73Zm1.58.77q-1.31-2.85-2.67-5.89h-.88q-1.38,3-2.66,5.8c-.85,1.84-1.34,2.88-1.46,3.11l.91.5c0-.07.17-.4.43-1l1.11-2.45h4c.44,1,.8,1.79,1.07,2.41s.42,1,.44,1l1.06-.55-1.37-3m-6.94-5.74h-7.78v.94h3.34c0,1,0,1.68,0,2.15v1.88c0,.8,0,1.62,0,2.46s0,1.39,0,1.66h1.13c0-.27,0-.82,0-1.64s0-1.63,0-2.43,0-1.48,0-2,0-1.19,0-2.12h3.33Zm-10,5H104c.21-.46.47-1.05.79-1.78s.6-1.34.83-1.83h0q.45,1,.84,1.89c.27.6.52,1.18.76,1.73Zm1.58.77q-1.3-2.85-2.67-5.89h-.88q-1.38,3-2.66,5.8c-.86,1.84-1.34,2.88-1.46,3.11l.91.5c0-.07.17-.4.43-1l1.11-2.45h4c.44,1,.8,1.79,1.07,2.41l.44,1,1-.55c0-.08-.49-1.07-1.36-3m-9.48.52a3.87,3.87,0,0,1-1.24,1.17,5.46,5.46,0,0,1-1.5.57,7.64,7.64,0,0,1-1.77.21h-.35c0-1.29,0-2.31,0-3v-2.52c0-.47,0-1.07,0-1.78h.35a8.24,8.24,0,0,1,1.69.19,4.88,4.88,0,0,1,1.7.67,3.22,3.22,0,0,1,1.2,1.24,3.29,3.29,0,0,1,.38,1.6,3,3,0,0,1-.47,1.69m1.15-3.73A4.2,4.2,0,0,0,99,179.29a6,6,0,0,0-1.94-.79,11,11,0,0,0-2.49-.26H93.39c0,1.08,0,2,0,2.77s0,1.38,0,1.87c0,.91,0,1.88,0,2.9s0,1.54,0,1.57h1.43a9.06,9.06,0,0,0,2.25-.25,7,7,0,0,0,1.82-.73,4.58,4.58,0,0,0,1.52-1.45,3.82,3.82,0,0,0,.59-2.1,4.22,4.22,0,0,0-.48-2.05"/></g></g></svg>